<svg id="Layer_1" data-name="Layer 1" xmlns="http://www.w3.org/2000/svg" xmlns:xlink="http://www.w3.org/1999/xlink" viewBox="0 0 322.11 104.7"><defs><style>.cls-1,.cls-4{fill:none;}.cls-2{clip-path:url(#clip-path);}.cls-3,.cls-7{fill:#f99e23;}.cls-4{stroke:#231f20;stroke-miterlimit:10;}.cls-5{fill:#2f5077;}.cls-6{fill:#d32027;}.cls-7{font-size:53px;font-family:Cabin-Regular, Cabin;}.cls-8{letter-spacing:-0.01em;}.cls-9{letter-spacing:0em;}.cls-10{letter-spacing:0em;}.cls-11{font-size:32px;fill:#231f20;font-family:Roboto-Regular, Roboto;}.cls-12{letter-spacing:-0.01em;}.cls-13{letter-spacing:-0.06em;}</style><clipPath id="clip-path" transform="translate(-315.99 -295.39)"><rect class="cls-1" x="315.99" y="295.39" width="378.44" height="104.7"/></clipPath></defs><title>logo3</title><g id="Artwork_1" data-name="Artwork 1"><g class="cls-2"><g class="cls-2"><path class="cls-3" d="M361.94,347.52H325.09a8.6,8.6,0,0,1-8.6-8.6V304.49a8.6,8.6,0,0,1,8.6-8.6h36.85a8.6,8.6,0,0,1,8.6,8.6v34.43a8.6,8.6,0,0,1-8.6,8.6" transform="translate(-315.99 -295.39)"/><rect class="cls-4" x="0.5" y="0.5" width="54.05" height="51.63" rx="8.6" ry="8.6"/><path class="cls-5" d="M416.16,347.55H379.31a8.6,8.6,0,0,1-8.6-8.6V304.52a8.6,8.6,0,0,1,8.6-8.6h36.85a8.6,8.6,0,0,1,8.6,8.6v34.43a8.6,8.6,0,0,1-8.6,8.6" transform="translate(-315.99 -295.39)"/><rect class="cls-4" x="54.72" y="0.53" width="54.05" height="51.63" rx="8.6" ry="8.6"/><line class="cls-4" x1="59.12" y1="37.65" x2="50.31" y2="37.65"/><path class="cls-5" d="M361.94,399.56H325.09a8.6,8.6,0,0,1-8.6-8.6V356.53a8.6,8.6,0,0,1,8.6-8.6h36.85a8.6,8.6,0,0,1,8.6,8.6V391a8.6,8.6,0,0,1-8.6,8.6" transform="translate(-315.99 -295.39)"/><rect class="cls-4" x="0.5" y="52.53" width="54.05" height="51.63" rx="8.6" ry="8.6"/><line class="cls-4" x1="41.05" y1="49.3" x2="41.05" y2="56.65"/><line class="cls-4" x1="27.53" y1="48.33" x2="27.53" y2="56.74"/><path class="cls-3" d="M416.16,399.58H379.31a8.6,8.6,0,0,1-8.6-8.6V356.55a8.6,8.6,0,0,1,8.6-8.6h36.85a8.6,8.6,0,0,1,8.6,8.6V391a8.6,8.6,0,0,1-8.6,8.6" transform="translate(-315.99 -295.39)"/><rect class="cls-4" x="54.72" y="52.56" width="54.05" height="51.63" rx="8.6" ry="8.6"/><line class="cls-4" x1="59.12" y1="63.7" x2="50.31" y2="63.7"/><line class="cls-4" x1="59.12" y1="77.34" x2="50.31" y2="77.34"/><line class="cls-4" x1="68.04" y1="48.54" x2="68.04" y2="55.73"/><line class="cls-4" x1="81.27" y1="47.93" x2="81.27" y2="56.34"/><path class="cls-6" d="M408.72,333.85c0,22.33-23,38.2-38.28,50.48-15.75-12.48-38.28-28.15-38.28-50.48s23.46-31.39,38.28-9.17c14.89-22,38.28-13.16,38.28,9.17" transform="translate(-315.99 -295.39)"/><path class="cls-4" d="M408.72,333.85c0,22.33-23,38.2-38.28,50.48-15.75-12.48-38.28-28.15-38.28-50.48s23.46-31.39,38.28-9.17C385.33,302.66,408.72,311.53,408.72,333.85Z" transform="translate(-315.99 -295.39)"/><line class="cls-4" x1="92.73" y1="22.79" x2="85.1" y2="26.99"/><line class="cls-4" x1="24.39" y1="26.99" x2="16.76" y2="22.79"/><line class="cls-4" x1="22.37" y1="48.25" x2="13.56" y2="48.25"/><line class="cls-4" x1="95.07" y1="48.25" x2="86.26" y2="48.25"/><line class="cls-4" x1="81.35" y1="72.51" x2="73.72" y2="68.3"/><line class="cls-4" x1="34.73" y1="68.11" x2="27.1" y2="72.32"/><line class="cls-4" x1="67.35" y1="22.44" x2="62.64" y2="15.33"/><line class="cls-4" x1="46.88" y1="15.48" x2="41.72" y2="22.29"/><text class="cls-7" transform="translate(118.44 55.73)">Li<tspan class="cls-8" x="37.79" y="0">f</tspan><tspan x="54.85" y="0">e </tspan><tspan class="cls-9" x="93.91" y="0">Q</tspan><tspan x="134.51" y="0">ui</tspan><tspan class="cls-9" x="173.52" y="0">l</tspan><tspan class="cls-10" x="185.81" y="0">t</tspan></text></g><text class="cls-11" transform="translate(122.44 91.79)">FOUN<tspan class="cls-12" x="83.25" y="0">D</tspan><tspan class="cls-13" x="103.91" y="0">A</tspan><tspan x="122.77" y="0">TION</tspan></text></g></g></svg>